<svg id="SvgjsSvg1089" width="839" height="428.00001525878906" xmlns="http://www.w3.org/2000/svg" version="1.1" xmlns:xlink="http://www.w3.org/1999/xlink" xmlns:svgjs="http://svgjs.com/svgjs"><defs id="SvgjsDefs1090"><pattern patternUnits="userSpaceOnUse" id="pattern_mark_0" width="300" height="300"><text x="150" y="100" fill="rgba(229,229,229,0.8)" font-size="18" transform="rotate(-45, 150, 150)" style="dominant-baseline: middle; text-anchor: middle;"></text></pattern><pattern patternUnits="userSpaceOnUse" id="pattern_mark_1" width="300" height="300"><text x="150" y="200" fill="rgba(229,229,229,0.8)" font-size="18" transform="rotate(-45, 150, 150)" style="dominant-baseline: middle; text-anchor: middle;"></text></pattern><marker id="SvgjsMarker1126" markerWidth="13" markerHeight="9" refX="9.5" refY="4.5" viewBox="0 0 13 9" orient="auto" markerUnits="userSpaceOnUse" stroke-dasharray="0,0"><path id="SvgjsPath1127" d="M0,0 L13,4.5 L0,9 L0,0" fill="#323232" stroke="#323232" stroke-width="1"></path></marker><marker id="SvgjsMarker1134" markerWidth="13" markerHeight="9" refX="9.5" refY="4.5" viewBox="0 0 13 9" orient="auto" markerUnits="userSpaceOnUse" stroke-dasharray="0,0"><path id="SvgjsPath1135" d="M0,0 L13,4.5 L0,9 L0,0" fill="#323232" stroke="#323232" stroke-width="1"></path></marker><marker id="SvgjsMarker1142" markerWidth="13" markerHeight="9" refX="9.5" refY="4.5" viewBox="0 0 13 9" orient="auto" markerUnits="userSpaceOnUse" stroke-dasharray="0,0"><path id="SvgjsPath1143" d="M0,0 L13,4.5 L0,9 L0,0" fill="#323232" stroke="#323232" stroke-width="1"></path></marker><marker id="SvgjsMarker1150" markerWidth="13" markerHeight="9" refX="9.5" refY="4.5" viewBox="0 0 13 9" orient="auto" markerUnits="userSpaceOnUse" stroke-dasharray="0,0"><path id="SvgjsPath1151" d="M0,0 L13,4.5 L0,9 L0,0" fill="#323232" stroke="#323232" stroke-width="1"></path></marker><marker id="SvgjsMarker1158" markerWidth="13" markerHeight="9" refX="9.5" refY="4.5" viewBox="0 0 13 9" orient="auto" markerUnits="userSpaceOnUse" stroke-dasharray="0,0"><path id="SvgjsPath1159" d="M0,0 L13,4.5 L0,9 L0,0" fill="#323232" stroke="#323232" stroke-width="1"></path></marker><marker id="SvgjsMarker1166" markerWidth="13" markerHeight="9" refX="9.5" refY="4.5" viewBox="0 0 13 9" orient="auto" markerUnits="userSpaceOnUse" stroke-dasharray="0,0"><path id="SvgjsPath1167" d="M0,0 L13,4.5 L0,9 L0,0" fill="#323232" stroke="#323232" stroke-width="1"></path></marker></defs><rect id="svgbackgroundid" width="839" height="428.00001525878906" fill="transparent"></rect><rect id="SvgjsRect1092" width="839" height="428.00001525878906" fill="url(#pattern_mark_0)"></rect><rect id="SvgjsRect1093" width="839" height="428.00001525878906" fill="url(#pattern_mark_1)"></rect><g id="SvgjsG1094" transform="translate(25.0089111328125,187.99998474121094)"><path id="SvgjsPath1095" d="M 0 18Q 0 0 18 0L 86 0Q 104 0 104 18L 104 47Q 104 65 86 65L 18 65Q 0 65 0 47L 0 18Z" stroke="rgba(33,41,48,1)" stroke-width="1.5" fill-opacity="1" fill="#95da69"></path><g id="SvgjsG1096"><text id="SvgjsText1097" font-family="微软雅黑" text-anchor="middle" font-size="13px" width="84px" fill="#323232" font-weight="400" align="middle" lineHeight="125%" anchor="middle" family="微软雅黑" size="13px" weight="400" font-style="" opacity="1" y="21.875" transform="rotate(0)"><tspan id="SvgjsTspan1098" dy="16" x="52"><tspan id="SvgjsTspan1099" style="text-decoration:;">RUNNING</tspan></tspan></text></g></g><g id="SvgjsG1100" transform="translate(207.0089111328125,24.999984741210938)"><path id="SvgjsPath1101" d="M 0 18Q 0 0 18 0L 82 0Q 100 0 100 18L 100 52Q 100 70 82 70L 18 70Q 0 70 0 52L 0 18Z" stroke="rgba(33,41,48,1)" stroke-width="1.5" fill-opacity="1" fill="#fadcdb"></path><g id="SvgjsG1102"><text id="SvgjsText1103" font-family="微软雅黑" text-anchor="middle" font-size="13px" width="80px" fill="#323232" font-weight="400" align="middle" lineHeight="125%" anchor="middle" family="微软雅黑" size="13px" weight="400" font-style="" opacity="1" y="24.375" transform="rotate(0)"><tspan id="SvgjsTspan1104" dy="16" x="50"><tspan id="SvgjsTspan1105" style="text-decoration:;">SHUTDOWN</tspan></tspan></text></g></g><g id="SvgjsG1106" transform="translate(207.0089111328125,332.99998474121094)"><path id="SvgjsPath1107" d="M 0 18Q 0 0 18 0L 82 0Q 100 0 100 18L 100 52Q 100 70 82 70L 18 70Q 0 70 0 52L 0 18Z" stroke="rgba(33,41,48,1)" stroke-width="1.5" fill-opacity="1" fill="#f19594"></path><g id="SvgjsG1108"><text id="SvgjsText1109" font-family="微软雅黑" text-anchor="middle" font-size="13px" width="80px" fill="#323232" font-weight="400" align="middle" lineHeight="125%" anchor="middle" family="微软雅黑" size="13px" weight="400" font-style="" opacity="1" y="24.375" transform="rotate(0)"><tspan id="SvgjsTspan1110" dy="16" x="50"><tspan id="SvgjsTspan1111" style="text-decoration:;">STOP</tspan></tspan></text></g></g><g id="SvgjsG1112" transform="translate(408.0089111328125,192.99998474121094)"><path id="SvgjsPath1113" d="M 0 18Q 0 0 18 0L 82 0Q 100 0 100 18L 100 52Q 100 70 82 70L 18 70Q 0 70 0 52L 0 18Z" stroke="rgba(33,41,48,1)" stroke-width="1.5" fill-opacity="1" fill="#f6edc1"></path><g id="SvgjsG1114"><text id="SvgjsText1115" font-family="微软雅黑" text-anchor="middle" font-size="13px" width="80px" fill="#323232" font-weight="400" align="middle" lineHeight="125%" anchor="middle" family="微软雅黑" size="13px" weight="400" font-style="" opacity="1" y="24.375" transform="rotate(0)"><tspan id="SvgjsTspan1116" dy="16" x="50"><tspan id="SvgjsTspan1117" style="text-decoration:;">TIDYING</tspan></tspan></text></g></g><g id="SvgjsG1118" transform="translate(672.0089111328125,192.99998474121094)"><path id="SvgjsPath1119" d="M 0 18Q 0 0 18 0L 124 0Q 142 0 142 18L 142 52Q 142 70 124 70L 18 70Q 0 70 0 52L 0 18Z" stroke="rgba(33,41,48,1)" stroke-width="1.5" fill-opacity="1" fill="#bfbfbf"></path><g id="SvgjsG1120"><text id="SvgjsText1121" font-family="微软雅黑" text-anchor="middle" font-size="13px" width="122px" fill="#323232" font-weight="400" align="middle" lineHeight="125%" anchor="middle" family="微软雅黑" size="13px" weight="400" font-style="" opacity="1" y="24.375" transform="rotate(0)"><tspan id="SvgjsTspan1122" dy="16" x="71"><tspan id="SvgjsTspan1123" style="text-decoration:;">TERMINATED</tspan></tspan></text></g></g><g id="SvgjsG1124"><path id="SvgjsPath1125" d="M77.04794768417929 187.25100133174357C 77.0089111328125 115.30445530507575 134.3133816966773 60.99998474121094 204.31219129545997 61.133034050977614" stroke="#323232" stroke-width="1.5" fill="none" marker-end="url(#SvgjsMarker1126)"></path><rect id="SvgjsRect1128" width="70" height="16" x="79.4158771835136" y="89.16216944019766" fill="#ffffff"></rect><text id="SvgjsText1129" font-family="微软雅黑" text-anchor="middle" font-size="13px" width="70px" fill="#323232" font-weight="400" align="top" lineHeight="16px" anchor="middle" family="微软雅黑" size="13px" weight="400" font-style="" opacity="1" y="86.53716944019766" transform="rotate(0)"><tspan id="SvgjsTspan1130" dy="16" x="114.4158771835136"><tspan id="SvgjsTspan1131" style="text-decoration:;">shutdown()</tspan></tspan></text></g><g id="SvgjsG1132"><path id="SvgjsPath1133" d="M77.0542817909951 253.74861115229731C 77.0089111328125 322.4262045720501 137.58269130197334 367.99998474121094 204.311682038862 367.8776932257783" stroke="#323232" stroke-width="1.5" fill="none" marker-end="url(#SvgjsMarker1134)"></path><rect id="SvgjsRect1136" width="99" height="16" x="66.14259639177683" y="328.61310903973236" fill="#ffffff"></rect><text id="SvgjsText1137" font-family="微软雅黑" text-anchor="middle" font-size="13px" width="99px" fill="#323232" font-weight="400" align="top" lineHeight="16px" anchor="middle" family="微软雅黑" size="13px" weight="400" font-style="" opacity="1" y="325.98810903973236" transform="rotate(0)"><tspan id="SvgjsTspan1138" dy="16" x="115.64259639177683"><tspan id="SvgjsTspan1139" style="text-decoration:;">shutdownNow()</tspan></tspan></text></g><g id="SvgjsG1140"><path id="SvgjsPath1141" d="M307.7583452643506 60.02911346390209C 387.4974196293674 59.999984741210966 458.0089111328125 112.51147624465597 457.8674679157913 190.30369213536144" stroke="#323232" stroke-width="1.5" fill="none" marker-end="url(#SvgjsMarker1142)"></path><rect id="SvgjsRect1144" width="142" height="16" x="341.7681006833352" y="87.98339856960804" fill="#ffffff"></rect><text id="SvgjsText1145" font-family="微软雅黑" text-anchor="middle" font-size="13px" width="142px" fill="#323232" font-weight="400" align="top" lineHeight="16px" anchor="middle" family="微软雅黑" size="13px" weight="400" font-style="" opacity="1" y="85.35839856960804" transform="rotate(0)"><tspan id="SvgjsTspan1146" dy="16" x="412.7681006833352"><tspan id="SvgjsTspan1147" style="text-decoration:;">queue and pool empty</tspan></tspan></text></g><g id="SvgjsG1148"><path id="SvgjsPath1149" d="M508.7589111328125 227.99998474121094C 573.6089111328125 227.99998474121094 606.4089111328125 227.99998474121094 669.3089111328125 227.99998474121094" stroke="#323232" stroke-width="1.5" fill="none" marker-end="url(#SvgjsMarker1150)"></path><rect id="SvgjsRect1152" width="77" height="16" x="551.2651611328125" y="219.99998474121094" fill="#ffffff"></rect><text id="SvgjsText1153" font-family="微软雅黑" text-anchor="middle" font-size="13px" width="77px" fill="#323232" font-weight="400" align="top" lineHeight="16px" anchor="middle" family="微软雅黑" size="13px" weight="400" font-style="" opacity="1" y="217.37498474121094" transform="rotate(0)"><tspan id="SvgjsTspan1154" dy="16" x="589.7651611328125"><tspan id="SvgjsTspan1155" style="text-decoration:;">terminated()</tspan></tspan></text></g><g id="SvgjsG1156"><path id="SvgjsPath1157" d="M307.75861664189495 367.9789692790123C 380.576295210269 367.99998474121094 458.0089111328125 336.56736881866743 457.82118651007886 265.69345081042724" stroke="#323232" stroke-width="1.5" fill="none" marker-end="url(#SvgjsMarker1158)"></path><rect id="SvgjsRect1160" width="72" height="16" x="374.1669277726523" y="335.4218100961343" fill="#ffffff"></rect><text id="SvgjsText1161" font-family="微软雅黑" text-anchor="middle" font-size="13px" width="72px" fill="#323232" font-weight="400" align="top" lineHeight="16px" anchor="middle" family="微软雅黑" size="13px" weight="400" font-style="" opacity="1" y="332.7968100961343" transform="rotate(0)"><tspan id="SvgjsTspan1162" dy="16" x="410.1669277726523"><tspan id="SvgjsTspan1163" style="text-decoration:;">pool empty</tspan></tspan></text></g><g id="SvgjsG1164"><path id="SvgjsPath1165" d="M257.0089111328125 95.74998474121094C 257.0089111328125 190.19998474121093 257.0089111328125 237.79998474121095 257.0089111328125 330.29998474121095" stroke="#323232" stroke-width="1.5" fill="none" marker-end="url(#SvgjsMarker1166)"></path><rect id="SvgjsRect1168" width="99" height="16" x="207.50891113281244" y="205.75623474121093" fill="#ffffff"></rect><text id="SvgjsText1169" font-family="微软雅黑" text-anchor="middle" font-size="13px" width="99px" fill="#323232" font-weight="400" align="top" lineHeight="16px" anchor="middle" family="微软雅黑" size="13px" weight="400" font-style="" opacity="1" y="203.13123474121093" transform="rotate(0)"><tspan id="SvgjsTspan1170" dy="16" x="257.00891113281244"><tspan id="SvgjsTspan1171" style="text-decoration:;">shutdownNow()</tspan></tspan></text></g></svg>